<svg width="24" height="24" viewBox="0 0 24 24" fill="#212123" xmlns="http://www.w3.org/2000/svg">
<g clip-path="url(#clip0_549_120)">
<path d="M9.25 5.95V9.25H5.95V5.95H9.25ZM10.9 4.3H4.3V10.9H10.9V4.3ZM9.25 14.75V18.05H5.95V14.75H9.25ZM10.9 13.1H4.3V19.7H10.9V13.1ZM18.05 5.95V9.25H14.75V5.95H18.05ZM19.7 4.3H13.1V10.9H19.7V4.3ZM13.1 13.1H14.75V14.75H13.1V13.1ZM14.75 14.75H16.4V16.4H14.75V14.75ZM16.4 13.1H18.05V14.75H16.4V13.1ZM13.1 16.4H14.75V18.05H13.1V16.4ZM14.75 18.05H16.4V19.7H14.75V18.05ZM16.4 16.4H18.05V18.05H16.4V16.4ZM18.05 14.75H19.7V16.4H18.05V14.75ZM18.05 18.05H19.7V19.7H18.05V18.05ZM23 6.5H20.8V3.2H17.5V1H23V6.5ZM23 23V17.5H20.8V20.8H17.5V23H23ZM1 23H6.5V20.8H3.2V17.5H1V23ZM1 1V6.5H3.2V3.2H6.5V1H1Z" fill="#212123"/>
</g>
<defs>
<clipPath id="clip0_549_120">
<rect width="24" height="24" fill="#212123"/>
</clipPath>
</defs>
</svg>
