<svg width="151" height="30" viewBox="0 0 151 30" fill="none" xmlns="http://www.w3.org/2000/svg">
<path d="M29.664 13.6433C31.0703 14.504 31.0703 16.8042 29.664 17.6649L12.5653 28.1289C11.2327 28.9445 9.61914 27.8432 9.61914 26.118V5.19016C9.61914 3.46498 11.2327 2.36374 12.5653 3.1793L29.664 13.6433Z" fill="#D4D4D4"/>
<path d="M22.289 13.6433C23.6954 14.504 23.6954 16.8042 22.289 17.6649L5.19041 28.1289C3.85769 28.9445 2.24414 27.8432 2.24414 26.118V5.19016C2.24414 3.46498 3.85769 2.36374 5.19041 3.1793L22.289 13.6433Z" fill="#525252"/>
<path d="M22.2362 13.587C23.6426 14.4477 23.7752 16.7392 22.2362 17.6973L9.61914 25.424L9.61968 5.89136L22.2362 13.587Z" fill="#888888"/>
<path d="M144.458 24.4181C143.417 24.4181 142.507 24.2495 141.73 23.9121C140.967 23.5601 140.329 23.0908 139.816 22.5041C139.303 21.9175 138.921 21.2575 138.672 20.5241C138.423 19.7761 138.298 19.0061 138.298 18.2141V17.7961C138.298 16.9748 138.43 16.1901 138.694 15.4421C138.958 14.6795 139.347 14.0048 139.86 13.4181C140.373 12.8315 141.011 12.3695 141.774 12.0321C142.551 11.6948 143.439 11.5261 144.436 11.5261C145.521 11.5261 146.482 11.7388 147.318 12.1641C148.154 12.5748 148.821 13.1541 149.32 13.9021C149.819 14.6501 150.097 15.5081 150.156 16.4761H146.702C146.643 15.9335 146.423 15.4788 146.042 15.1121C145.675 14.7308 145.14 14.5401 144.436 14.5401C143.849 14.5401 143.358 14.6868 142.962 14.9801C142.581 15.2735 142.295 15.6768 142.104 16.1901C141.913 16.7035 141.818 17.3121 141.818 18.0161C141.818 18.6615 141.906 19.2481 142.082 19.7761C142.258 20.2895 142.537 20.6928 142.918 20.9861C143.314 21.2648 143.827 21.4041 144.458 21.4041C144.927 21.4041 145.323 21.3235 145.646 21.1621C145.983 20.9861 146.247 20.7515 146.438 20.4581C146.643 20.1501 146.768 19.7981 146.812 19.4021H150.244C150.2 20.3995 149.921 21.2795 149.408 22.0421C148.895 22.7901 148.213 23.3768 147.362 23.8021C146.511 24.2128 145.543 24.4181 144.458 24.4181Z" fill="#EFEFEF"/>
<path d="M124.694 24.0001V11.9441H127.488V17.1141H127.29C127.29 15.8821 127.444 14.8554 127.752 14.0341C128.075 13.2127 128.559 12.5967 129.204 12.1861C129.85 11.7754 130.634 11.5701 131.558 11.5701H131.712C133.12 11.5701 134.191 12.0321 134.924 12.9561C135.672 13.8654 136.046 15.2514 136.046 17.1141V24.0001H132.526V16.9161C132.526 16.2707 132.336 15.7427 131.954 15.3321C131.573 14.9214 131.06 14.7161 130.414 14.7161C129.754 14.7161 129.219 14.9287 128.808 15.3541C128.412 15.7647 128.214 16.3074 128.214 16.9821V24.0001H124.694Z" fill="#EFEFEF"/>
<path d="M112.015 28.7741V25.7821H114.523C114.905 25.7821 115.227 25.7308 115.491 25.6281C115.755 25.5401 115.968 25.3861 116.129 25.1661C116.291 24.9461 116.423 24.6454 116.525 24.2641L119.495 11.9441H122.839L119.473 24.9681C119.239 25.9068 118.909 26.6548 118.483 27.2121C118.073 27.7694 117.515 28.1654 116.811 28.4001C116.122 28.6494 115.242 28.7741 114.171 28.7741H112.015ZM115.799 23.7361V20.9861H118.351V23.7361H115.799ZM114.347 23.7361L110.651 11.9441H114.193L117.691 23.7361H114.347Z" fill="#EFEFEF"/>
<path d="M103.26 24.4181C101.808 24.4181 100.583 24.1907 99.5858 23.7361C98.5885 23.2667 97.8331 22.6361 97.3198 21.8441C96.8065 21.0374 96.5498 20.1134 96.5498 19.0721H100.048C100.048 19.4827 100.158 19.8641 100.378 20.2161C100.612 20.5681 100.964 20.8541 101.434 21.0741C101.903 21.2794 102.512 21.3821 103.26 21.3821C103.934 21.3821 104.499 21.2941 104.954 21.1181C105.408 20.9421 105.753 20.7001 105.988 20.3921C106.222 20.0694 106.34 19.7027 106.34 19.2921C106.34 18.7787 106.12 18.3754 105.68 18.0821C105.24 17.7741 104.528 17.5761 103.546 17.4881L102.336 17.3781C100.737 17.2461 99.4611 16.7474 98.5078 15.8821C97.5545 15.0167 97.0778 13.8727 97.0778 12.4501C97.0778 11.4234 97.3198 10.5361 97.8038 9.78805C98.3025 9.04005 98.9918 8.46806 99.8718 8.07205C100.752 7.66139 101.793 7.45605 102.996 7.45605C104.257 7.45605 105.335 7.67605 106.23 8.11605C107.139 8.54139 107.836 9.15005 108.32 9.94205C108.804 10.7194 109.046 11.6361 109.046 12.6921H105.526C105.526 12.2961 105.43 11.9367 105.24 11.6141C105.049 11.2767 104.763 11.0054 104.382 10.8001C104.015 10.5947 103.553 10.4921 102.996 10.4921C102.468 10.4921 102.02 10.5801 101.654 10.7561C101.302 10.9321 101.038 11.1741 100.862 11.4821C100.686 11.7754 100.598 12.0981 100.598 12.4501C100.598 12.9047 100.759 13.3007 101.082 13.6381C101.404 13.9754 101.932 14.1734 102.666 14.2321L103.898 14.3421C105.071 14.4447 106.105 14.7014 107 15.1121C107.894 15.5081 108.591 16.0581 109.09 16.7621C109.603 17.4514 109.86 18.2947 109.86 19.2921C109.86 20.3187 109.588 21.2207 109.046 21.9981C108.518 22.7607 107.762 23.3547 106.78 23.7801C105.797 24.2054 104.624 24.4181 103.26 24.4181Z" fill="#EFEFEF"/>
<path d="M89.2671 24.4181C88.2404 24.4181 87.3311 24.2421 86.5391 23.8901C85.7617 23.5381 85.1091 23.0688 84.5811 22.4821C84.0677 21.8808 83.6717 21.2135 83.3931 20.4801C83.1291 19.7321 82.9971 18.9695 82.9971 18.1921V17.7521C82.9971 16.9455 83.1291 16.1755 83.3931 15.4421C83.6717 14.6941 84.0677 14.0268 84.5811 13.4401C85.0944 12.8535 85.7324 12.3915 86.4951 12.0541C87.2724 11.7021 88.1524 11.5261 89.1351 11.5261C90.4257 11.5261 91.5111 11.8195 92.3911 12.4061C93.2857 12.9781 93.9677 13.7335 94.4371 14.6721C94.9064 15.5961 95.1411 16.6081 95.1411 17.7081V18.8961H84.4711V16.8941H93.0071L91.8631 17.8181C91.8631 17.0995 91.7604 16.4835 91.5551 15.9701C91.3497 15.4568 91.0417 15.0681 90.6311 14.8041C90.2351 14.5255 89.7364 14.3861 89.1351 14.3861C88.5191 14.3861 87.9984 14.5255 87.5731 14.8041C87.1477 15.0828 86.8251 15.4935 86.6051 16.0361C86.3851 16.5641 86.2751 17.2168 86.2751 17.9941C86.2751 18.7128 86.3777 19.3435 86.5831 19.8861C86.7884 20.4141 87.1111 20.8248 87.5511 21.1181C87.9911 21.4115 88.5631 21.5581 89.2671 21.5581C89.9124 21.5581 90.4404 21.4335 90.8511 21.1841C91.2617 20.9348 91.5404 20.6268 91.6871 20.2601H94.9211C94.7451 21.0668 94.4004 21.7855 93.8871 22.4161C93.3737 23.0468 92.7284 23.5381 91.9511 23.8901C91.1737 24.2421 90.2791 24.4181 89.2671 24.4181Z" fill="#EFEFEF"/>
<path d="M73.2483 24.3959C72.3977 24.3959 71.6203 24.2419 70.9163 23.9339C70.227 23.6259 69.6257 23.2006 69.1123 22.6579C68.599 22.1006 68.203 21.4479 67.9243 20.6999C67.6603 19.9519 67.5283 19.1453 67.5283 18.2799V17.7739C67.5283 16.9086 67.653 16.1019 67.9023 15.3539C68.1663 14.6059 68.5403 13.9533 69.0243 13.3959C69.523 12.8239 70.117 12.3839 70.8063 12.0759C71.4957 11.7533 72.2657 11.5919 73.1163 11.5919C74.0843 11.5919 74.9203 11.8046 75.6243 12.2299C76.3283 12.6406 76.8783 13.2566 77.2743 14.0779C77.6703 14.8846 77.8903 15.8819 77.9343 17.0699L77.0103 16.2119V7.93994H80.5523V23.9999H77.7583V19.0059H78.2423C78.1983 20.1499 77.9563 21.1253 77.5163 21.9319C77.091 22.7386 76.5117 23.3546 75.7783 23.7799C75.045 24.1906 74.2017 24.3959 73.2483 24.3959ZM74.1283 21.4479C74.671 21.4479 75.1623 21.3306 75.6023 21.0959C76.057 20.8466 76.4163 20.4873 76.6803 20.0179C76.959 19.5486 77.0983 18.9839 77.0983 18.3239V17.5099C77.0983 16.8646 76.959 16.3219 76.6803 15.8819C76.4017 15.4419 76.035 15.1046 75.5803 14.8699C75.1257 14.6353 74.6343 14.5179 74.1063 14.5179C73.5197 14.5179 72.9917 14.6719 72.5223 14.9799C72.0677 15.2733 71.7083 15.6839 71.4443 16.2119C71.1803 16.7253 71.0483 17.3266 71.0483 18.0159C71.0483 18.7199 71.1803 19.3286 71.4443 19.8419C71.7083 20.3553 72.075 20.7513 72.5443 21.0299C73.0137 21.3086 73.5417 21.4479 74.1283 21.4479Z" fill="#EFEFEF"/>
<path d="M61.5005 24V11.944H65.0205V24H61.5005ZM59.8945 14.54V11.944H65.0205V14.54H59.8945ZM62.8645 10.756C62.2045 10.756 61.7132 10.5874 61.3905 10.25C61.0825 9.89803 60.9285 9.45803 60.9285 8.93003C60.9285 8.38736 61.0825 7.94736 61.3905 7.61003C61.7132 7.25803 62.2045 7.08203 62.8645 7.08203C63.5245 7.08203 64.0085 7.25803 64.3165 7.61003C64.6392 7.94736 64.8005 8.38736 64.8005 8.93003C64.8005 9.45803 64.6392 9.89803 64.3165 10.25C64.0085 10.5874 63.5245 10.756 62.8645 10.756Z" fill="#EFEFEF"/>
<path d="M54.1439 23.9999V7.93994H57.6859V23.9999H54.1439ZM52.7139 10.5359V7.93994H57.6859V10.5359H52.7139Z" fill="#EFEFEF"/>
<path d="M45.1016 24.4181C43.6496 24.4181 42.4249 24.1907 41.4276 23.7361C40.4303 23.2667 39.6749 22.6361 39.1616 21.8441C38.6483 21.0374 38.3916 20.1134 38.3916 19.0721H41.8896C41.8896 19.4827 41.9996 19.8641 42.2196 20.2161C42.4543 20.5681 42.8063 20.8541 43.2756 21.0741C43.7449 21.2794 44.3536 21.3821 45.1016 21.3821C45.7763 21.3821 46.3409 21.2941 46.7956 21.1181C47.2503 20.9421 47.5949 20.7001 47.8296 20.3921C48.0643 20.0694 48.1816 19.7027 48.1816 19.2921C48.1816 18.7787 47.9616 18.3754 47.5216 18.0821C47.0816 17.7741 46.3703 17.5761 45.3876 17.4881L44.1776 17.3781C42.5789 17.2461 41.3029 16.7474 40.3496 15.8821C39.3963 15.0167 38.9196 13.8727 38.9196 12.4501C38.9196 11.4234 39.1616 10.5361 39.6456 9.78805C40.1443 9.04005 40.8336 8.46806 41.7136 8.07205C42.5936 7.66139 43.6349 7.45605 44.8376 7.45605C46.0989 7.45605 47.1769 7.67605 48.0716 8.11605C48.9809 8.54139 49.6776 9.15005 50.1616 9.94205C50.6456 10.7194 50.8876 11.6361 50.8876 12.6921H47.3676C47.3676 12.2961 47.2723 11.9367 47.0816 11.6141C46.8909 11.2767 46.6049 11.0054 46.2236 10.8001C45.8569 10.5947 45.3949 10.4921 44.8376 10.4921C44.3096 10.4921 43.8623 10.5801 43.4956 10.7561C43.1436 10.9321 42.8796 11.1741 42.7036 11.4821C42.5276 11.7754 42.4396 12.0981 42.4396 12.4501C42.4396 12.9047 42.6009 13.3007 42.9236 13.6381C43.2463 13.9754 43.7743 14.1734 44.5076 14.2321L45.7396 14.3421C46.9129 14.4447 47.9469 14.7014 48.8416 15.1121C49.7363 15.5081 50.4329 16.0581 50.9316 16.7621C51.4449 17.4514 51.7016 18.2947 51.7016 19.2921C51.7016 20.3187 51.4303 21.2207 50.8876 21.9981C50.3596 22.7607 49.6043 23.3547 48.6216 23.7801C47.6389 24.2054 46.4656 24.4181 45.1016 24.4181Z" fill="#EFEFEF"/>
</svg>
