<svg width="82" height="82" viewBox="0 0 82 82" fill="none" xmlns="http://www.w3.org/2000/svg">
<path d="M82 41C82 63.6437 63.6437 82 41 82C18.3563 82 0 63.6437 0 41C0 18.3563 18.3563 0 41 0C63.6437 0 82 18.3563 82 41Z" fill="#1899E9"/>
<g clip-path="url(#clip0_580_28)">
<path d="M36.417 30.9167V36.4167H30.917V30.9167H36.417ZM39.167 28.1667H28.167V39.1667H39.167V28.1667ZM36.417 45.5834V51.0834H30.917V45.5834H36.417ZM39.167 42.8334H28.167V53.8334H39.167V42.8334ZM51.0837 30.9167V36.4167H45.5837V30.9167H51.0837ZM53.8337 28.1667H42.8337V39.1667H53.8337V28.1667ZM42.8337 42.8334H45.5837V45.5834H42.8337V42.8334ZM45.5837 45.5834H48.3337V48.3334H45.5837V45.5834ZM48.3337 42.8334H51.0837V45.5834H48.3337V42.8334ZM42.8337 48.3334H45.5837V51.0834H42.8337V48.3334ZM45.5837 51.0834H48.3337V53.8334H45.5837V51.0834ZM48.3337 48.3334H51.0837V51.0834H48.3337V48.3334ZM51.0837 45.5834H53.8337V48.3334H51.0837V45.5834ZM51.0837 51.0834H53.8337V53.8334H51.0837V51.0834ZM59.3337 31.8334H55.667V26.3334H50.167V22.6667H59.3337V31.8334ZM59.3337 59.3334V50.1667H55.667V55.6667H50.167V59.3334H59.3337ZM22.667 59.3334H31.8337V55.6667H26.3337V50.1667H22.667V59.3334ZM22.667 22.6667V31.8334H26.3337V26.3334H31.8337V22.6667H22.667Z" fill="white"/>
</g>
<defs>
<clipPath id="clip0_580_28">
<rect width="40" height="40" fill="white" transform="translate(21 21)"/>
</clipPath>
</defs>
</svg>
