<svg width="82" height="82" viewBox="0 0 82 82" fill="none" xmlns="http://www.w3.org/2000/svg">
<circle cx="41" cy="41" r="41" fill="#1899E9"/>
<g clip-path="url(#clip0_580_29)">
<path d="M29.925 34.9315L23.8564 41L29.925 47.0686L32.9422 44.0343L29.925 41L32.9422 37.9657L29.925 34.9315ZM40.9993 52.0743L37.965 49.0572L34.9307 52.0743L40.9993 58.1429L47.0679 52.0743L44.0336 49.0572L40.9993 52.0743ZM52.0736 34.9315L49.0564 37.9657L52.0736 41L49.0564 44.0343L52.0736 47.0686L58.1422 41L52.0736 34.9315ZM34.9307 29.9257L37.965 32.9429L40.9993 29.9257L44.0336 32.9429L47.0679 29.9257L40.9993 23.8572L34.9307 29.9257Z" fill="white"/>
<path d="M40.9993 46.1429C43.8396 46.1429 46.1422 43.8404 46.1422 41C46.1422 38.1597 43.8396 35.8572 40.9993 35.8572C38.159 35.8572 35.8564 38.1597 35.8564 41C35.8564 43.8404 38.159 46.1429 40.9993 46.1429Z" fill="white"/>
</g>
<defs>
<clipPath id="clip0_580_29">
<rect width="40" height="40" fill="white" transform="translate(21 21)"/>
</clipPath>
</defs>
</svg>
